# WaveFront *.obj file (generated by Autodesk ATF)

mtllib 36086794-e309-4ec7-a129-32e250779dc9.mtl

g Body1

v 3.404870 -0.043885 0.938950
v 1.042397 1.288792 0.938950
v 1.042397 8.699285 0.938950
v 13.662445 8.699285 0.938950
v 15.923958 7.184879 0.938950
v 15.923958 9.931001 0.938950
v -0.108551 9.931001 0.938950
v -0.108551 -0.043885 0.938950
v 3.404870 -0.043885 0.000000
v -0.108551 -0.043885 0.000000
v -0.108551 9.931001 0.000000
v 15.923958 9.931001 -0.000000
v 15.923958 7.184879 -0.000000
v 13.662445 8.699285 -0.000000
v 1.042397 8.699285 0.000000
v 1.042397 1.288792 0.000000
vt 0.000000 0.000000 0.000000
vt -0.236247 0.133268 0.000000
vt -0.351342 0.000000 0.000000
vt -0.351342 0.997489 0.000000
vt -0.236247 0.874317 0.000000
vt 1.025758 0.874317 0.000000
vt 1.251909 0.722876 0.000000
vt 1.251909 0.997489 0.000000
vt -0.000000 0.000000 0.000000
vt 0.351342 0.000000 0.000000
vt 0.236247 0.133268 0.000000
vt 0.351342 0.997489 0.000000
vt 0.236247 0.874317 0.000000
vt -1.025758 0.874317 0.000000
vt -1.251909 0.997489 0.000000
vt -1.251909 0.722876 0.000000
vt 0.000000 -0.135622 0.000000
vt 0.093895 -0.135622 0.000000
vt -0.000000 0.135622 0.000000
vt 0.093895 0.135622 0.000000
vt -0.000000 0.370525 0.000000
vt -0.093895 0.370525 0.000000
vt -0.000000 -0.370525 0.000000
vt -0.093895 -0.370525 0.000000
vt 0.000000 0.631002 0.000000
vt -0.093895 0.631002 0.000000
vt -0.000000 -0.631002 0.000000
vt -0.093895 -0.631002 0.000000
vt 0.000000 -0.136087 0.000000
vt 0.093895 -0.136087 0.000000
vt -0.000000 0.136087 0.000000
vt 0.093895 0.136087 0.000000
vt 0.000000 0.137306 0.000000
vt -0.093895 0.137306 0.000000
vt 0.000000 -0.137306 0.000000
vt -0.093895 -0.137306 0.000000
vt 0.000000 -0.801625 0.000000
vt 0.093895 -0.801625 0.000000
vt -0.000000 0.801625 0.000000
vt 0.093895 0.801625 0.000000
vt 0.000000 -0.498744 0.000000
vt 0.093895 -0.498744 0.000000
vt 0.000000 0.498744 0.000000
vt 0.093895 0.498744 0.000000
vt 0.000000 0.175671 0.000000
vt -0.093895 0.175671 0.000000
vt -0.000000 -0.175671 0.000000
vt -0.093895 -0.175671 0.000000
vn 0.000000 0.000000 0.100000
vn 0.000000 0.000000 0.100000
vn 0.000000 0.000000 0.100000
vn 0.000000 0.000000 0.100000
vn 0.000000 0.000000 0.100000
vn 0.000000 0.000000 0.100000
vn 0.000000 0.000000 0.100000
vn 0.000000 0.000000 0.100000
vn 0.000000 0.000000 -0.100000
vn 0.000000 0.000000 -0.100000
vn 0.000000 0.000000 -0.100000
vn 0.000000 0.000000 -0.100000
vn 0.000000 0.000000 -0.100000
vn 0.000000 0.000000 -0.100000
vn 0.000000 0.000000 -0.100000
vn 0.000000 0.000000 -0.100000
vn 0.049132 0.087098 -0.000000
vn 0.049132 0.087098 -0.000000
vn 0.049132 0.087098 -0.000000
vn 0.049132 0.087098 -0.000000
vn 0.100000 0.000000 -0.000000
vn 0.100000 0.000000 -0.000000
vn 0.100000 0.000000 -0.000000
vn 0.100000 0.000000 -0.000000
vn 0.000000 -0.100000 0.000000
vn 0.000000 -0.100000 0.000000
vn 0.000000 -0.100000 0.000000
vn 0.000000 -0.100000 0.000000
vn -0.055641 -0.083091 0.000000
vn -0.055641 -0.083091 0.000000
vn -0.055641 -0.083091 0.000000
vn -0.055641 -0.083091 0.000000
vn 0.100000 0.000000 0.000000
vn 0.100000 0.000000 0.000000
vn 0.100000 0.000000 0.000000
vn 0.100000 0.000000 0.000000
vn 0.000000 0.100000 0.000000
vn 0.000000 0.100000 0.000000
vn 0.000000 0.100000 0.000000
vn 0.000000 0.100000 0.000000
vn -0.100000 0.000000 0.000000
vn -0.100000 0.000000 0.000000
vn -0.100000 0.000000 0.000000
vn -0.100000 0.000000 0.000000
vn 0.000000 -0.100000 0.000000
vn 0.000000 -0.100000 0.000000
vn 0.000000 -0.100000 0.000000
vn 0.000000 -0.100000 0.000000
usemtl Titanium_-_Polished
f 1/1/1 2/2/2 8/3/3
f 8/3/3 2/2/2 7/4/4
f 7/4/4 2/2/2 3/5/5
f 7/4/4 3/5/5 4/6/6
f 5/7/7 6/8/8 4/6/6
f 4/6/6 6/8/8 7/4/4
f 9/9/9 10/10/10 16/11/11
f 16/11/11 10/10/10 11/12/12
f 16/11/11 11/12/12 15/13/13
f 15/13/13 11/12/12 14/14/14
f 14/14/14 11/12/12 12/15/15
f 14/14/14 12/15/15 13/16/16
f 16/17/17 2/18/18 9/19/19
f 9/19/19 2/18/18 1/20/20
f 15/21/21 3/22/22 16/23/23
f 16/23/23 3/22/22 2/24/24
f 14/25/25 4/26/26 15/27/27
f 15/27/27 4/26/26 3/28/28
f 13/29/29 5/30/30 14/31/31
f 14/31/31 5/30/30 4/32/32
f 12/33/33 6/34/34 13/35/35
f 13/35/35 6/34/34 5/36/36
f 11/37/37 7/38/38 12/39/39
f 12/39/39 7/38/38 6/40/40
f 10/41/41 8/42/42 11/43/43
f 11/43/43 8/42/42 7/44/44
f 9/45/45 1/46/46 10/47/47
f 10/47/47 1/46/46 8/48/48

g Body2

v -0.108551 -0.043885 0.282064
v 15.923958 -0.043885 0.282064
v 15.923958 -0.043885 0.665411
v -0.108551 -0.043885 0.665411
v 15.923958 9.931001 0.282064
v 15.923958 9.931001 0.665411
v -0.108551 9.931001 0.282064
v -0.108551 9.931001 0.665411
vt 0.000000 0.801625 0.000000
vt -0.038335 0.801625 0.000000
vt 0.000000 -0.801625 0.000000
vt -0.038335 -0.801625 0.000000
vt 0.000000 0.498744 0.000000
vt -0.038335 0.498744 0.000000
vt 0.000000 -0.498744 0.000000
vt -0.038335 -0.498744 0.000000
vt 0.000000 -0.801625 0.000000
vt 0.038335 -0.801625 0.000000
vt 0.000000 0.801625 0.000000
vt 0.038335 0.801625 0.000000
vt 0.000000 -0.498744 0.000000
vt 0.038335 -0.498744 0.000000
vt 0.000000 0.498744 0.000000
vt 0.038335 0.498744 0.000000
vt 0.000000 0.997489 0.000000
vt -1.603251 0.997489 0.000000
vt 0.000000 0.000000 0.000000
vt -1.603251 0.000000 0.000000
vt 0.000000 0.000000 0.000000
vt 1.603251 0.000000 0.000000
vt 0.000000 0.997489 0.000000
vt 1.603251 0.997489 0.000000
vn 0.000000 -0.100000 0.000000
vn 0.000000 -0.100000 0.000000
vn 0.000000 -0.100000 0.000000
vn 0.000000 -0.100000 0.000000
vn 0.100000 0.000000 0.000000
vn 0.100000 0.000000 0.000000
vn 0.100000 0.000000 0.000000
vn 0.100000 0.000000 0.000000
vn 0.000000 0.100000 0.000000
vn 0.000000 0.100000 0.000000
vn 0.000000 0.100000 0.000000
vn 0.000000 0.100000 0.000000
vn -0.100000 0.000000 0.000000
vn -0.100000 0.000000 0.000000
vn -0.100000 0.000000 0.000000
vn -0.100000 0.000000 0.000000
vn 0.000000 0.000000 -0.100000
vn 0.000000 0.000000 -0.100000
vn 0.000000 0.000000 -0.100000
vn 0.000000 0.000000 -0.100000
vn 0.000000 0.000000 0.100000
vn 0.000000 0.000000 0.100000
vn 0.000000 0.000000 0.100000
vn 0.000000 0.000000 0.100000
usemtl Glass_-_Light_Color_(Blue)
f 18/49/49 19/50/50 17/51/51
f 17/51/51 19/50/50 20/52/52
f 21/53/53 22/54/54 18/55/55
f 18/55/55 22/54/54 19/56/56
f 23/57/57 24/58/58 21/59/59
f 21/59/59 24/58/58 22/60/60
f 17/61/61 20/62/62 23/63/63
f 23/63/63 20/62/62 24/64/64
f 23/65/65 21/66/66 17/67/67
f 17/67/67 21/66/66 18/68/68
f 20/69/69 19/70/70 24/71/71
f 24/71/71 19/70/70 22/72/72

# 24 vertices
# 72 texture params
# 72 normals
# 40 facets

# 2 groups
