<svg xmlns="http://www.w3.org/2000/svg" viewBox="0 0 32 40" x="0px" y="0px"><title>sound, audio, ringtone, volume, sounds</title><g data-name="02"><path d="M4,20a1,1,0,0,1-1-1V13a1,1,0,0,1,2,0v6A1,1,0,0,1,4,20Z"/><path d="M8,23a1,1,0,0,1-1-1V10a1,1,0,0,1,2,0V22A1,1,0,0,1,8,23Z"/><path d="M12,20a1,1,0,0,1-1-1V13a1,1,0,0,1,2,0v6A1,1,0,0,1,12,20Z"/><path d="M16,24a1,1,0,0,1-1-1V9a1,1,0,0,1,2,0V23A1,1,0,0,1,16,24Z"/><path d="M20,27a1,1,0,0,1-1-1V6a1,1,0,0,1,2,0V26A1,1,0,0,1,20,27Z"/><path d="M24,23a1,1,0,0,1-1-1V10a1,1,0,0,1,2,0V22A1,1,0,0,1,24,23Z"/><path d="M28,19a1,1,0,0,1-1-1V14a1,1,0,0,1,2,0v4A1,1,0,0,1,28,19Z"/></g><text x="0" y="47" fill="#000000" font-size="5px" font-weight="bold" font-family="'Helvetica Neue', Helvetica, Arial-Unicode, Arial, Sans-serif">Created by Kantor Tegalsari</text><text x="0" y="52" fill="#000000" font-size="5px" font-weight="bold" font-family="'Helvetica Neue', Helvetica, Arial-Unicode, Arial, Sans-serif">from the Noun Project</text></svg>